<?xml version="1.0" standalone="no"?>
<!DOCTYPE svg PUBLIC "-//W3C//DTD SVG 20010904//EN"
 "http://www.w3.org/TR/2001/REC-SVG-20010904/DTD/svg10.dtd">
<svg version="1.0" xmlns="http://www.w3.org/2000/svg"
 width="260.000000pt" height="260.000000pt" viewBox="0 0 260.000000 260.000000"
 preserveAspectRatio="xMidYMid meet">
<metadata>
Created by potrace 1.11, written by Peter Selinger 2001-2013
</metadata>
<g transform="translate(0.000000,260.000000) scale(0.100000,-0.100000)"
fill="#000000" stroke="none">
<path d="M1100 2197 c0 -2 -175 -401 -390 -887 -370 -841 -389 -886 -374 -907
15 -23 17 -23 186 -21 l170 3 87 195 86 195 420 0 420 0 86 -195 87 -195 172
0 c162 0 173 1 186 20 12 18 -26 110 -378 908 l-391 887 -183 0 c-101 0 -184
-1 -184 -3z m320 -772 c67 -154 125 -286 127 -292 4 -10 -52 -13 -261 -13
-146 0 -266 2 -266 4 0 3 52 123 116 268 64 145 123 278 131 297 8 18 18 30
22 25 4 -5 63 -135 131 -289z"/>
</g>
</svg>
